<?xml version="1.0" encoding="UTF-8"?>
<svg width="126px" height="46px" viewBox="0 0 126 46" version="1.1" xmlns="http://www.w3.org/2000/svg" xmlns:xlink="http://www.w3.org/1999/xlink">
    <!-- Generator: Sketch 49.3 (51167) - http://www.bohemiancoding.com/sketch -->
    <title>logo</title>
    <desc>Created with Sketch.</desc>
    <defs></defs>
    <g id="logo" stroke="none" stroke-width="1" fill="none" fill-rule="evenodd">
        <g id="logo-contact" transform="translate(-9.000000, -4.000000)" fill="#FFFFFF">
            <path d="M9.06071427,20.15 L9.06071427,14 L13.3107143,14 L13.3107143,8.15 L20.1607143,4.4 L20.1607143,14 L24.8607143,14 L24.8607143,20.15 L20.1607143,20.15 L20.1607143,28.1 C20.1607143,32 20.6607143,32.6 24.8607143,32.6 L24.8607143,39 L23.8607143,39 C15.9107143,39 13.3107143,36.3 13.3107143,28.15 L13.3107143,20.15 L9.06071427,20.15 Z M27.7654762,39 L27.7654762,14 L34.5654762,14 L34.5654762,18.1 C35.8154762,15.5 38.0654762,14 41.4654762,14 L44.2154762,14 L44.2154762,20.65 L39.8654762,20.65 C36.2154762,20.65 34.6154762,22.55 34.6154762,27.2 L34.6154762,39 L27.7654762,39 Z M55.5702381,39.5 C49.8202381,39.5 46.4702381,35.85 46.4702381,29.25 L46.4702381,14 L53.4202381,14 L53.4202381,28.35 C53.4202381,31.85 54.8702381,33.65 57.7702381,33.65 C60.3702381,33.65 62.0702381,31.85 62.0702381,27.8 L62.0702381,14 L68.9202381,14 L68.9202381,39 L62.1202381,39 L62.1202381,36.1 C60.6702381,38.2 58.4702381,39.5 55.5702381,39.5 Z M80.825,39.5 C74.225,39.5 70.875,36.55 70.875,30.55 L77.775,30.55 L77.775,30.75 C77.775,32.8 79.175,33.55 80.825,33.55 C82.775,33.55 83.525,32.75 83.525,31.35 C83.525,29.8 80.475,29.55 77.375,28.5 C74.325,27.5 71.225,25.7 71.225,21.1 C71.225,16.75 74.675,13.5 80.375,13.5 C86.025,13.5 90.075,16.3 90.075,22.05 L83.425,22.05 L83.425,21.95 C83.425,19.85 82.275,19.15 80.575,19.15 C78.875,19.15 78.075,20.1 78.075,21.15 C78.075,22.6 81.075,22.85 84.125,23.9 C87.125,24.95 90.125,26.75 90.125,31.25 C90.125,35.6 86.975,39.5 80.825,39.5 Z M91.0297619,20.15 L91.0297619,14 L95.2797619,14 L95.2797619,8.15 L102.129762,4.4 L102.129762,14 L106.829762,14 L106.829762,20.15 L102.129762,20.15 L102.129762,28.1 C102.129762,32 102.629762,32.6 106.829762,32.6 L106.829762,39 L105.829762,39 C97.8797619,39 95.2797619,36.3 95.2797619,28.15 L95.2797619,20.15 L91.0297619,20.15 Z M113.684524,50.55 L118.784524,37.9 L108.834524,14 L116.034524,14 L122.184524,29.4 L127.934524,14 L135.034524,14 L120.534524,50.55 L113.684524,50.55 Z" id="trusty"></path>
        </g>
    </g>
</svg>