<?xml version="1.0" encoding="UTF-8"?>
<svg width="383px" height="139px" viewBox="0 0 383 139" version="1.1" xmlns="http://www.w3.org/2000/svg" xmlns:xlink="http://www.w3.org/1999/xlink">
    <!-- Generator: Sketch 49.3 (51167) - http://www.bohemiancoding.com/sketch -->
    <title>logo-contact</title>
    <desc>Created with Sketch.</desc>
    <defs></defs>
    <g id="logo-contact" stroke="none" stroke-width="1" fill="none" fill-rule="evenodd">
        <g transform="translate(-4.000000, -47.000000)" fill="#FFFFFF" id="trusty">
            <path d="M4.00357158,94.45 L4.00357158,76 L16.7535716,76 L16.7535716,58.45 L37.3035716,47.2 L37.3035716,76 L51.4035716,76 L51.4035716,94.45 L37.3035716,94.45 L37.3035716,118.3 C37.3035716,130 38.8035716,131.8 51.4035716,131.8 L51.4035716,151 L48.4035716,151 C24.5535716,151 16.7535716,142.9 16.7535716,118.45 L16.7535716,94.45 L4.00357158,94.45 Z M61.0107144,151 L61.0107144,76 L81.4107144,76 L81.4107144,88.3 C85.1607144,80.5 91.9107144,76 102.110714,76 L110.360714,76 L110.360714,95.95 L97.3107144,95.95 C86.3607144,95.95 81.5607144,101.65 81.5607144,115.6 L81.5607144,151 L61.0107144,151 Z M145.317857,152.5 C128.067857,152.5 118.017857,141.55 118.017857,121.75 L118.017857,76 L138.867857,76 L138.867857,119.05 C138.867857,129.55 143.217857,134.95 151.917857,134.95 C159.717857,134.95 164.817857,129.55 164.817857,117.4 L164.817857,76 L185.367857,76 L185.367857,151 L164.967857,151 L164.967857,142.3 C160.617857,148.6 154.017857,152.5 145.317857,152.5 Z M221.975,152.5 C202.175,152.5 192.125,143.65 192.125,125.65 L212.825,125.65 L212.825,126.25 C212.825,132.4 217.025,134.65 221.975,134.65 C227.825,134.65 230.075,132.25 230.075,128.05 C230.075,123.4 220.925,122.65 211.625,119.5 C202.475,116.5 193.175,111.1 193.175,97.3 C193.175,84.25 203.525,74.5 220.625,74.5 C237.575,74.5 249.725,82.9 249.725,100.15 L229.775,100.15 L229.775,99.85 C229.775,93.55 226.325,91.45 221.225,91.45 C216.125,91.45 213.725,94.3 213.725,97.45 C213.725,101.8 222.725,102.55 231.875,105.7 C240.875,108.85 249.875,114.25 249.875,127.75 C249.875,140.8 240.425,152.5 221.975,152.5 Z M253.482143,94.45 L253.482143,76 L266.232143,76 L266.232143,58.45 L286.782143,47.2 L286.782143,76 L300.882143,76 L300.882143,94.45 L286.782143,94.45 L286.782143,118.3 C286.782143,130 288.282143,131.8 300.882143,131.8 L300.882143,151 L297.882143,151 C274.032143,151 266.232143,142.9 266.232143,118.45 L266.232143,94.45 L253.482143,94.45 Z M322.339286,185.65 L337.639286,147.7 L307.789286,76 L329.389286,76 L347.839286,122.2 L365.089286,76 L386.389286,76 L342.889286,185.65 L322.339286,185.65 Z"></path>
        </g>
    </g>
</svg>