<?xml version="1.0" encoding="UTF-8"?>
<svg width="100%" height="100%" viewBox="0 0 115 35" version="1.1" xmlns="http://www.w3.org/2000/svg" xmlns:xlink="http://www.w3.org/1999/xlink">
    <!-- Generator: Sketch 49.3 (51167) - http://www.bohemiancoding.com/sketch -->
    <title>Slice 3</title>
    <desc>Created with Sketch.</desc>
    <defs></defs>
    <g id="Logo" stroke="none" stroke-width="1" fill="none" fill-rule="evenodd">
        <path d="M21.348,7.064 L28.235,7.064 L28.235,9.224 L28.307,9.224 C28.715002,8.45599616 29.320996,7.82000252 30.125,7.316 C30.929004,6.81199748 31.8709946,6.56 32.951,6.56 C33.5990032,6.56 34.126998,6.6199994 34.535,6.74 L33.887,13.796 C33.6229987,13.7239996 33.3290016,13.6700002 33.005,13.634 C32.6809984,13.5979998 32.3870013,13.58 32.123,13.58 C31.0429946,13.58 30.1790032,13.8919969 29.531,14.516 C28.8829968,15.1400031 28.559,15.9079954 28.559,16.82 L28.559,26 L20.243,26 L20.243,7.748 L15.084,7.748 L15.084,26 L6.516,26 L6.516,7.748 L0.252,7.748 L0.252,0.512 L21.348,0.512 L21.348,7.064 Z M56.29,26 L48.19,26 L48.19,23.912 L48.118,23.912 C47.6379976,24.6080035 46.9240047,25.2139974 45.976,25.73 C45.0279953,26.2460026 43.9420061,26.504 42.718,26.504 C41.3739933,26.504 40.2700043,26.2700023 39.406,25.802 C38.5419957,25.3339977 37.8520026,24.7220038 37.336,23.966 C36.8199974,23.2099962 36.460001,22.3580047 36.256,21.41 C36.051999,20.4619953 35.95,19.5200047 35.95,18.584 L35.95,7.064 L44.302,7.064 L44.302,17.072 C44.302,18.0320048 44.4519985,18.7039981 44.752,19.088 C45.0520015,19.4720019 45.501997,19.664 46.102,19.664 C46.6540028,19.664 47.1039983,19.4420022 47.452,18.998 C47.8000017,18.5539978 47.974,17.9120042 47.974,17.072 L47.974,7.064 L56.29,7.064 L56.29,26 Z M75.597,19.988 C75.597,21.2600064 75.3270027,22.3279957 74.787,23.192 C74.2469973,24.0560043 73.5630041,24.7459974 72.735,25.262 C71.9069959,25.7780026 71.0010049,26.1499989 70.017,26.378 C69.0329951,26.6060011 68.0970044,26.72 67.209,26.72 C65.5769918,26.72 63.9750079,26.4860023 62.403,26.018 C60.8309921,25.5499977 59.4690058,24.8840043 58.317,24.02 L62.385,19.304 C62.9610029,19.8320026 63.6389961,20.2579984 64.419,20.582 C65.1990039,20.9060016 65.9489964,21.068 66.669,21.068 C66.9570014,21.068 67.2269987,21.0140005 67.479,20.906 C67.7310013,20.7979995 67.857,20.6000014 67.857,20.312 C67.857,19.9999984 67.6350022,19.7540009 67.191,19.574 C66.7469978,19.3939991 65.9730055,19.1720013 64.869,18.908 C64.268997,18.7639993 63.6570031,18.5540014 63.033,18.278 C62.4089969,18.0019986 61.8390026,17.6360023 61.323,17.18 C60.8069974,16.7239977 60.3810017,16.1660033 60.045,15.506 C59.7089983,14.8459967 59.541,14.0600046 59.541,13.148 C59.541,11.9239939 59.8109973,10.8800043 60.351,10.016 C60.8910027,9.15199568 61.5749959,8.4500027 62.403,7.91 C63.2310041,7.3699973 64.1309951,6.97400126 65.103,6.722 C66.0750049,6.46999874 66.9929957,6.344 67.857,6.344 C69.3210073,6.344 70.7729928,6.55999784 72.213,6.992 C73.6530072,7.42400216 74.9489942,8.02399616 76.101,8.792 L72.213,13.436 C71.612997,13.0519981 71.0010031,12.7520011 70.377,12.536 C69.7529969,12.3199989 69.141003,12.212 68.541,12.212 C68.132998,12.212 67.7970013,12.2659995 67.533,12.374 C67.2689987,12.4820005 67.137,12.6919984 67.137,13.004 C67.137,13.2440012 67.2869985,13.4299993 67.587,13.562 C67.8870015,13.6940007 68.5769946,13.8679989 69.657,14.084 C70.4010037,14.2280007 71.1269965,14.4499985 71.835,14.75 C72.5430035,15.0500015 73.1789972,15.4339977 73.743,15.902 C74.3070028,16.3700023 74.7569983,16.9399966 75.093,17.612 C75.4290017,18.2840034 75.597,19.0759954 75.597,19.988 Z M86.768,26.504 C84.2239873,26.504 82.3400061,25.9580055 81.116,24.866 C79.8919939,23.7739945 79.28,22.0760115 79.28,19.772 L79.28,13.004 L76.616,13.004 L76.616,7.064 L79.244,7.064 L79.244,2.816 L87.308,2.816 L87.308,7.064 L91.412,7.064 L91.412,13.004 L87.308,13.004 L87.308,18.044 C87.308,18.9560046 87.505998,19.5739984 87.902,19.898 C88.298002,20.2220016 88.8439965,20.384 89.54,20.384 C89.8040013,20.384 90.0799986,20.3600002 90.368,20.312 C90.6560014,20.2639998 90.8839992,20.2160002 91.052,20.168 L91.052,25.856 C90.6199978,26.048001 90.0140039,26.2039994 89.234,26.324 C88.4539961,26.4440006 87.6320043,26.504 86.768,26.504 Z M99.127,25.28 L91.459,7.064 L100.675,7.064 L103.483,17.036 L103.627,17.036 L106.111,7.064 L115.003,7.064 L107.227,27.152 C106.770998,28.3280059 106.255003,29.3779954 105.679,30.302 C105.102997,31.2260046 104.431004,32.0119968 103.663,32.66 C102.894996,33.3080032 101.989005,33.7999983 100.945,34.136 C99.9009948,34.4720017 98.683007,34.64 97.291,34.64 C96.8589978,34.64 96.4150023,34.6220002 95.959,34.586 C95.5029977,34.5499998 95.0650021,34.5020003 94.645,34.442 C94.2249979,34.3819997 93.8350018,34.3220003 93.475,34.262 C93.1149982,34.2019997 92.8150012,34.1360004 92.575,34.064 L93.619,27.224 C93.9310016,27.3440006 94.3089978,27.4459996 94.753,27.53 C95.1970022,27.6140004 95.5989982,27.656 95.959,27.656 C96.8710046,27.656 97.5489978,27.4700019 97.993,27.098 C98.4370022,26.7259981 98.7669989,26.2520029 98.983,25.676 L99.127,25.28 Z" id="Trusty" fill="#FFFFFF"></path>
    </g>
</svg>