<?xml version="1.0" encoding="UTF-8"?>
<svg width="125px" height="125px" viewBox="0 0 125 125" version="1.1" xmlns="http://www.w3.org/2000/svg" xmlns:xlink="http://www.w3.org/1999/xlink">
    <!-- Generator: Sketch 49.3 (51167) - http://www.bohemiancoding.com/sketch -->
    <title>Slice</title>
    <desc>Created with Sketch.</desc>
    <defs></defs>
    <g id="Site-Web-Icon" stroke="none" stroke-width="1" fill="none" fill-rule="evenodd">
        <g id="4--Profile--" transform="translate(-8.000000, 7.000000)">
            <polygon id="Triangle" fill="#55E1C1" transform="translate(70.077670, 70.077670) rotate(45.000000) translate(-70.077670, -70.077670) " points="105.195465 32.9110133 56.0141613 134.064666 34.9598745 6.09067409"></polygon>
            <g id="curriculum" opacity="0.707370924" transform="translate(33.000000, 18.000000)" fill="#000000" fill-rule="nonzero">
                <path d="M6,6 L6,38 L38,38 L38,6 L6,6 Z M35.3306205,35.3306205 L8.66937945,35.3306205 L8.66937945,8.66937945 L35.3306205,8.66937945 L35.3306205,35.3306205 Z" id="Shape"></path>
                <path d="M25.1310976,21.907704 C26.4268293,20.7635393 27.25,19.115942 27.25,17.2547674 C27.25,13.8070175 24.445122,11 21,11 C17.554878,11 14.75,13.8070175 14.75,17.2547674 C14.75,19.115942 15.5731707,20.7635393 16.8689024,21.907704 C13.4085366,23.4790236 11,26.9572845 11,31 L13.5,31 C13.5,26.8504958 16.8689024,23.4942792 21,23.4942792 C25.1310976,23.4942792 28.5,26.8657513 28.5,31 L31,31 C31,26.9572845 28.5914634,23.4790236 25.1310976,21.907704 Z M21,20.9923722 C18.9268293,20.9923722 17.25,19.3142639 17.25,17.2395118 C17.25,15.1647597 18.9268293,13.4866514 21,13.4866514 C23.0731707,13.4866514 24.75,15.1647597 24.75,17.2395118 C24.75,19.3142639 23.0731707,20.9923722 21,20.9923722 Z" id="Shape"></path>
                <rect id="Rectangle-path" x="41" y="9" width="19" height="3"></rect>
                <rect id="Rectangle-path" x="41" y="20" width="19" height="3"></rect>
                <rect id="Rectangle-path" x="41" y="30" width="19" height="3"></rect>
                <path d="M66.1326772,39.7409449 L66.1326772,0 L0,0 L0,82 L66.1326772,82 L66.1326772,73.9937008 C74.9944882,73.315748 82,65.9066929 82,56.8673228 C82,47.8279528 74.9944882,40.4188976 66.1326772,39.7409449 Z M63.4854331,74.0744094 L27.7799213,74.0744094 L27.7799213,76.7216535 L63.4854331,76.7216535 L63.4854331,79.3688976 L2.64724409,79.3688976 L2.64724409,79.3527559 L2.64724409,2.64724409 L63.4854331,2.64724409 L63.4854331,39.7409449 C60.6283465,39.9669291 57.9811024,40.8708661 55.6889764,42.323622 L5.29448819,42.323622 L5.29448819,44.9708661 L52.4283465,44.9708661 C50.3299213,47.15 48.8125984,49.8779528 48.0862205,52.9125984 L5.29448819,52.9125984 L5.29448819,55.5598425 L47.6826772,55.5598425 C47.6503937,55.9956693 47.6181102,56.4314961 47.6181102,56.8834646 C47.6181102,65.9228346 54.623622,73.3318898 63.4854331,74.0098425 L63.4854331,74.0744094 Z M64.8090551,71.4271654 C56.7866142,71.4271654 50.2653543,64.9059055 50.2653543,56.8834646 C50.2653543,48.8610236 56.7866142,42.3397638 64.8090551,42.3397638 C72.8314961,42.3397638 79.3527559,48.8610236 79.3527559,56.8834646 C79.3527559,64.8897638 72.8314961,71.4271654 64.8090551,71.4271654 Z" id="Shape"></path>
                <polygon id="Shape" points="73.1337849 49 62.2099915 60.180022 57.8662151 55.7343578 56 57.6443469 62.2099915 64 75 50.8935236"></polygon>
                <rect id="Rectangle-path" x="38" y="65" width="3" height="3"></rect>
                <rect id="Rectangle-path" x="34" y="65" width="3" height="3"></rect>
                <rect id="Rectangle-path" x="28" y="65" width="3" height="3"></rect>
                <path d="M6,59 L6,78 L25,78 L25,59 L6,59 Z M22.2833479,75.2833479 L8.71665214,75.2833479 L8.71665214,61.7166521 L22.2833479,61.7166521 L22.2833479,75.2833479 Z" id="Shape"></path>
            </g>
        </g>
    </g>
</svg>