<?xml version="1.0" encoding="UTF-8"?>
<svg width="125px" height="125px" viewBox="0 0 125 125" version="1.1" xmlns="http://www.w3.org/2000/svg" xmlns:xlink="http://www.w3.org/1999/xlink">
    <!-- Generator: Sketch 49.3 (51167) - http://www.bohemiancoding.com/sketch -->
    <title>Slice</title>
    <desc>Created with Sketch.</desc>
    <defs></defs>
    <g id="Site-Web-Icon" stroke="none" stroke-width="1" fill="none" fill-rule="evenodd">
        <g id="3--Time" transform="translate(-5.000000, -20.000000)">
            <polygon id="Triangle" fill="#55E1C1" transform="translate(65.062266, 65.257844) rotate(45.000000) translate(-65.062266, -65.257844) " points="95.0343456 9.48184675 100.602525 121.033841 29.5220071 108.824825"></polygon>
            <g id="time-is-money" opacity="0.705219656" transform="translate(23.000000, 38.000000)" fill="#000000" fill-rule="nonzero">
                <path d="M50,44.1052632 C50,41.3656842 48.16,39.0785263 45.6875,38.4197895 L45.6875,23.4736842 C45.6875,22.6587368 45.0435,22 44.25,22 C43.4565,22 42.8125,22.6587368 42.8125,23.4736842 L42.8125,38.4197895 C40.8014375,38.9562105 39.227375,40.5698947 38.704125,42.6315789 L28.4375,42.6315789 C27.644,42.6315789 27,43.2903158 27,44.1052632 C27,44.9202105 27.644,45.5789474 28.4375,45.5789474 L38.704125,45.5789474 C39.3466875,48.1151579 41.579125,50 44.25,50 C47.421125,50 50,47.3562105 50,44.1052632 Z M44.25,47.0526316 C42.6644375,47.0526316 41.375,45.7307368 41.375,44.1052632 C41.375,42.4797895 42.6644375,41.1578947 44.25,41.1578947 C45.8355625,41.1578947 47.125,42.4797895 47.125,44.1052632 C47.125,45.7307368 45.8355625,47.0526316 44.25,47.0526316 Z" id="Shape"></path>
                <path d="M43.5,14 C44.328,14 45,13.404 45,12.6666667 L45,11.3333333 C45,10.596 44.328,10 43.5,10 C42.672,10 42,10.596 42,11.3333333 L42,12.6666667 C42,13.404 42.672,14 43.5,14 Z" id="Shape"></path>
                <path d="M42,73.3333333 L42,74.6666667 C42,75.404 42.672,76 43.5,76 C44.328,76 45,75.404 45,74.6666667 L45,73.3333333 C45,72.596 44.328,72 43.5,72 C42.672,72 42,72.596 42,73.3333333 Z" id="Shape"></path>
                <path d="M74.6666667,45 C75.4026667,45 76,44.3295 76,43.5 C76,42.6705 75.4026667,42 74.6666667,42 L73.3333333,42 C72.5973333,42 72,42.6705 72,43.5 C72,44.3295 72.5973333,45 73.3333333,45 L74.6666667,45 Z" id="Shape"></path>
                <path d="M11.3333333,42 C10.5973333,42 10,42.6705 10,43.5 C10,44.3295 10.5973333,45 11.3333333,45 L12.6666667,45 C13.4026667,45 14,44.3295 14,43.5 C14,42.6705 13.4026667,42 12.6666667,42 L11.3333333,42 Z" id="Shape"></path>
                <path d="M64.477747,24 C64.8559557,24 65.2341644,23.8552036 65.522253,23.5670884 L66.566759,22.5224859 C67.1444137,21.9447779 67.1444137,21.010989 66.566759,20.433281 C65.9891043,19.855573 65.0554017,19.855573 64.477747,20.433281 L63.433241,21.4778835 C62.8555863,22.0555915 62.8555863,22.9893804 63.433241,23.5670884 C63.7213296,23.8566811 64.0995383,24 64.477747,24 Z" id="Shape"></path>
                <path d="M21.477747,63.433281 L20.433241,64.4778835 C19.8555863,65.0555915 19.8555863,65.9893804 20.433241,66.5670884 C20.7213296,66.8552036 21.0995383,67 21.477747,67 C21.8559557,67 22.2341644,66.8552036 22.522253,66.5670884 L23.566759,65.5224859 C24.1444137,64.9447779 24.1444137,64.010989 23.566759,63.433281 C22.9891043,62.855573 22.0539243,62.855573 21.477747,63.433281 Z" id="Shape"></path>
                <path d="M23.566759,21.4778835 L22.522253,20.433281 C21.9445983,19.855573 21.0108957,19.855573 20.433241,20.433281 C19.8555863,21.010989 19.8555863,21.9447779 20.433241,22.5224859 L21.477747,23.5670884 C21.7658356,23.8552036 22.1440443,24 22.522253,24 C22.9004617,24 23.2786704,23.8552036 23.566759,23.5670884 C24.1444137,22.9908579 24.1444137,22.0555915 23.566759,21.4778835 Z" id="Shape"></path>
                <path d="M43.5,0 C19.5141,0 0,19.5141 0,43.5 C0,67.4859 19.5141,87 43.5,87 C48.6852,87 53.76455,86.09375 58.6003,84.30445 C59.3514,84.0275 59.7342,83.1923 59.45725,82.44265 C59.17885,81.68865 58.34655,81.30585 57.594,81.5857 C53.0816,83.2532 48.3401,84.1 43.5,84.1 C21.11345,84.1 2.9,65.88655 2.9,43.5 C2.9,21.11345 21.11345,2.9 43.5,2.9 C65.88655,2.9 84.1,21.11345 84.1,43.5 C84.1,48.343 83.2532,53.08305 81.58425,57.59255 C81.3073,58.3451 81.6901,59.17885 82.4412,59.4558 C83.1923,59.73855 84.02605,59.3514 84.30445,58.6003 C86.09375,53.76745 87,48.6881 87,43.5 C87,19.5141 67.4859,0 43.5,0 Z" id="Shape"></path>
                <path d="M73,60.04645 L73,58.45 C73,57.64815 72.328,57 71.5,57 C70.672,57 70,57.64815 70,58.45 L70,60.05225 C68.3635,60.37415 66.8725,61.2137 65.773,62.47085 C64.8565,63.51775 64.432,64.85755 64.582,66.2452 C64.735,67.66475 65.491,68.98135 66.6565,69.85715 L70,72.37 L70,80.2551 C68.2585,79.6548 67,78.0598 67,76.1719 C67,75.37005 66.328,74.7219 65.5,74.7219 C64.672,74.7219 64,75.37005 64,76.1719 C64,79.6722 66.5815,82.6012 70,83.27545 L70,84.55 C70,85.35185 70.672,86 71.5,86 C72.328,86 73,85.35185 73,84.55 L73,83.2711 C74.6365,82.9492 76.1275,82.10965 77.2285,80.8525 C78.145,79.8027 78.568,78.4629 78.418,77.07525 C78.2635,75.65715 77.509,74.342 76.3435,73.46765 L73,70.9519 L73,63.0668 C74.7415,63.6671 76,65.2621 76,67.15 C76,67.95185 76.672,68.6 77.5,68.6 C78.328,68.6 79,67.95185 79,67.15 C79,63.6497 76.4185,60.7207 73,60.04645 Z M74.5015,75.75575 C75.025,76.1487 75.3655,76.74175 75.4345,77.37685 C75.499,77.97135 75.322,78.5412 74.938,78.9791 C74.416,79.57505 73.741,79.99265 73,80.24785 L73,74.62475 L74.5015,75.75575 Z M68.4985,67.5676 C67.9735,67.1732 67.6345,66.58015 67.5655,65.9436 C67.5025,65.35055 67.678,64.78215 68.062,64.3428 C68.584,63.74685 69.259,63.32925 70,63.07405 L70,68.6957 L68.4985,67.5676 Z" id="Shape"></path>
            </g>
        </g>
    </g>
</svg>