<?xml version="1.0" encoding="UTF-8"?>
<svg width="125px" height="125px" viewBox="0 0 125 125" version="1.1" xmlns="http://www.w3.org/2000/svg" xmlns:xlink="http://www.w3.org/1999/xlink">
    <!-- Generator: Sketch 49.3 (51167) - http://www.bohemiancoding.com/sketch -->
    <title>Slice</title>
    <desc>Created with Sketch.</desc>
    <defs></defs>
    <g id="Site-Web-Icon" stroke="none" stroke-width="1" fill="none" fill-rule="evenodd">
        <g id="2--Increse" transform="translate(7.000000, -13.000000)">
            <polygon id="Triangle" fill="#55E1C1" transform="translate(66.681585, 65.979021) rotate(45.000000) translate(-66.681585, -65.979021) " points="104.040617 121.630138 29.3225534 108.34898 51.785326 10.3279041"></polygon>
            <g id="profits-(1)" opacity="0.723278986" transform="translate(13.000000, 27.000000)" fill="#000000" fill-rule="nonzero">
                <path d="M73.5046904,25 L62.4446529,25 C55.5722326,25 50,30.6926491 50,37.6751734 L50,63.0427184 L56.9230769,63.0427184 L56.9230769,80.6538141 C56.9230769,84.1450763 59.7091932,87 63.1538462,87 L72.8461538,87 C76.2739212,87 79.0769231,84.1622746 79.0769231,80.6538141 L79.0769231,63.0427184 L86,63.0427184 L86,37.6751734 C85.9493433,30.6926491 80.3602251,25 73.5046904,25 Z M79.0262664,60.2221914 L79.0262664,41.9059639 L76.2570356,41.9059639 L76.2570356,80.6538141 C76.2570356,82.5972261 74.7035647,84.179473 72.7954972,84.179473 L69.3339587,84.179473 L69.3339587,67.1531207 L66.564728,67.1531207 L66.564728,84.179473 L63.1031895,84.179473 C61.195122,84.179473 59.641651,82.5972261 59.641651,80.6538141 L59.641651,41.9059639 L56.8724203,41.9059639 L56.8724203,60.2221914 L52.7185741,60.2221914 L52.7185741,37.6751734 C52.7185741,32.2404993 57.0581614,27.8033287 62.4108818,27.8033287 L73.4709193,27.8033287 C78.8067542,27.8033287 83.163227,32.223301 83.163227,37.6751734 L83.163227,60.2221914 L79.0262664,60.2221914 Z" id="Shape"></path>
                <path d="M68.5000223,0 C62.1618667,0 57.0000447,5.15789474 57.0000447,11.4912281 C56.9824874,17.8421053 62.1443095,23 68.5000223,23 C74.838178,23 80,17.8421053 80,11.5087719 C80,5.15789474 74.838178,0 68.5000223,0 Z M68.5000223,20.1403509 C63.7420163,20.1403509 59.8618712,16.2631579 59.8618712,11.5087719 C59.8618712,6.75438596 63.7420163,2.87719298 68.5000223,2.87719298 C73.2580284,2.87719298 77.1381735,6.75438596 77.1381735,11.5087719 C77.1381735,16.2631579 73.2580284,20.1403509 68.5000223,20.1403509 Z" id="Shape"></path>
                <path d="M0,62 L0,87 L14,87 L14,62 L0,62 Z M11.2136752,84.220339 L2.8034188,84.220339 L2.8034188,64.779661 L11.2136752,64.779661 L11.2136752,84.220339 Z" id="Shape"></path>
                <path d="M16,48 L16,87 L30,87 L30,48 L16,48 Z M27.2136752,84.211857 L18.8034188,84.211857 L18.8034188,50.788143 L27.2136752,50.788143 L27.2136752,84.211857 Z" id="Shape"></path>
                <path d="M34,34 L34,87 L48,87 L48,34 L34,34 Z M45.2136752,84.2087347 L36.8034188,84.2087347 L36.8034188,36.7912653 L45.2136752,36.7912653 L45.2136752,84.2087347 Z" id="Shape"></path>
                <polygon id="Shape" points="18.7094559 11.6201796 22.6312731 15.5250924 5 33.1563656 6.96090861 35.1172742 26.5530903 15.5250924 24.5921817 13.5810882 33.7374538 12.2625462 32.4358162 21.4078183 30.4749076 19.4469097 10.8827258 39.0390914 12.8436344 41 30.4749076 23.3687269 34.3798204 27.2905441 37 9"></polygon>
            </g>
        </g>
    </g>
</svg>