<?xml version="1.0" encoding="UTF-8"?>
<svg width="125px" height="125px" viewBox="0 0 125 125" version="1.1" xmlns="http://www.w3.org/2000/svg" xmlns:xlink="http://www.w3.org/1999/xlink">
    <!-- Generator: Sketch 49.3 (51167) - http://www.bohemiancoding.com/sketch -->
    <title>Slice</title>
    <desc>Created with Sketch.</desc>
    <defs></defs>
    <g id="Site-Web-Icon" stroke="none" stroke-width="1" fill="none" fill-rule="evenodd">
        <g id="1--Team" transform="translate(-15.000000, -18.000000)">
            <polygon id="Triangle" fill="#55E1C1" transform="translate(67.301476, 67.701625) rotate(45.000000) translate(-67.301476, -67.701625) " points="128.821958 100.641427 5.78099349 68.660525 103.341591 34.7618222"></polygon>
            <g id="success" opacity="0.715013587" transform="translate(34.000000, 32.000000)" fill="#000000" fill-rule="nonzero">
                <path d="M89.8413817,87.8295 L82.4990648,73.146 L82.4990648,63 C82.4990648,60.84 81.567588,58.9065 80.1021246,57.537 C82.4135669,56.2575 83.9990274,53.823 83.9990274,51 C83.9990274,46.8645 80.6346113,43.5 76.4992144,43.5 C72.3638176,43.5 68.9994015,46.8645 68.9994015,51 C68.9994015,52.695 69.5858869,54.243 70.5383631,55.5 L67.4994389,55.5 C66.6714595,55.5 65.9994763,54.8265 65.9994763,54 L65.9994763,49.5 L65.9994763,37.5 C65.9994763,36.672 65.328993,36 64.4995137,36 L59.8481297,36 C59.1506471,32.5815 56.1222226,30 52.499813,30 L46.4999626,30 L46.4999626,22.4235 C51.6088352,22.0605 56.2167203,19.8765 59.6681342,16.5 L61.4995885,16.5 C67.2879442,16.5 71.9993267,11.79 71.9993267,6 C71.9993267,5.172 71.3288434,4.5 70.4993641,4.5 L65.7594823,4.5 C65.9019787,3.5175 65.9994763,2.5215 65.9994763,1.5 C65.9994763,0.672 65.328993,0 64.4995137,0 L25.5004863,0 C24.671007,0 24.0005237,0.672 24.0005237,1.5 C24.0005237,2.5215 24.0980213,3.5175 24.2405177,4.5 L19.5006359,4.5 C18.6711566,4.5 18.0006733,5.172 18.0006733,6 C18.0006733,11.79 22.7120558,16.5 28.5004115,16.5 L30.3318658,16.5 C33.7847797,19.8765 38.3926648,22.0605 43.5000374,22.4235 L43.5000374,30 L37.500187,30 C33.8792773,30 30.8493529,32.5815 30.1518703,36 L25.5004863,36 C24.671007,36 24.0005237,36.672 24.0005237,37.5 L24.0005237,49.5 L24.0005237,54 C24.0005237,54.8265 23.3285405,55.5 22.5005611,55.5 L19.4616369,55.5 C20.4141131,54.243 21.0005985,52.695 21.0005985,51 C21.0005985,46.8645 17.6361824,43.5 13.5007856,43.5 C9.36538869,43.5 6.0009726,46.8645 6.0009726,51 C6.0009726,53.823 7.58643306,56.2575 9.89787541,57.537 C8.43241196,58.9065 7.50093519,60.84 7.50093519,63 L7.50093519,73.146 L0.158618301,87.8295 C-0.0738759005,88.2945 -0.0498764991,88.8465 0.224616655,89.289 C0.49910981,89.73 0.980597802,90 1.50108482,90 L7.50093519,90 C8.06942101,90 8.58840807,89.679 8.84340171,89.1705 L13.1842935,80.49 L15.0367473,88.8255 C15.1897434,89.511 15.7972283,90 16.5007107,90 L22.5005611,90 C22.9505499,90 23.3750393,89.799 23.6600322,89.451 C23.9435251,89.1045 24.0590222,88.647 23.9705245,88.206 L21.0005985,73.3515 L21.0005985,64.5 L22.5005611,64.5 C26.15597,64.5 29.5128862,62.5875 31.408839,59.535 C32.3868146,59.8365 33.4247887,60 34.5002619,60 L36.0002244,60 L36.0002244,68.829 L31.5378357,88.1625 C31.4358383,88.608 31.5408357,89.076 31.8258286,89.4345 C32.1108214,89.7915 32.5428107,90 33.0002993,90 L40.5001122,90 C41.1885951,90 41.7870801,89.532 41.9550759,88.8645 L45,76.6845 L48.0449241,88.8645 C48.2129199,89.532 48.8114049,90 49.4998878,90 L56.9997007,90 C57.4571893,90 57.8891786,89.7915 58.1726715,89.4345 C58.4576644,89.0775 58.5641617,88.6095 58.4606643,88.1625 L53.9997756,68.829 L53.9997756,60 L55.4997381,60 C56.5752113,60 57.6131854,59.8365 58.591161,59.535 C60.4871138,62.5875 63.84403,64.5 67.4994389,64.5 L68.9994015,64.5 L68.9994015,73.3515 L66.0294755,88.206 C65.9409778,88.647 66.0564749,89.1045 66.3399678,89.451 C66.6249607,89.799 67.0494501,90 67.4994389,90 L73.4992893,90 C74.2027717,90 74.8102566,89.511 74.9647527,88.8255 L76.8172065,80.49 L81.1580983,89.1705 C81.4115919,89.679 81.930579,90 82.4990648,90 L88.4989152,90 C89.0194022,90 89.5008902,89.73 89.7753833,89.289 C90.0498765,88.8465 90.0738759,88.2945 89.8413817,87.8295 Z M76.4992144,46.5 C78.9801526,46.5 80.9991022,48.519 80.9991022,51 C80.9991022,53.481 78.9801526,55.5 76.4992144,55.5 C74.0182763,55.5 71.9993267,53.481 71.9993267,51 C71.9993267,48.519 74.0182763,46.5 76.4992144,46.5 Z M51.6898332,39 L56.9997007,39 L56.9997007,49.5 C56.9997007,50.3265 56.3277175,51 55.4997381,51 L51.6898332,51 C53.1207975,49.4055 53.9997756,47.307 53.9997756,45 C53.9997756,42.693 53.1207975,40.5945 51.6898332,39 Z M63.7705319,10.86 C63.8560297,10.6875 63.9400277,10.515 64.0210256,10.3395 C64.2010211,9.954 64.3720169,9.567 64.528013,9.1695 C64.5745118,9.0525 64.6150108,8.9325 64.6585097,8.814 C64.8205057,8.3805 64.9810017,7.947 65.1144984,7.5 L68.8479053,7.5 C68.1984215,10.683 65.528488,13.14 62.24057,13.464 C62.2495698,13.4505 62.2585696,13.4355 62.2675694,13.4205 C62.4745642,13.122 62.6620595,12.81 62.8525548,12.501 C62.9755517,12.3015 63.1015486,12.105 63.2170457,11.9025 C63.4120408,11.562 63.5935363,11.2125 63.7705319,10.86 Z M21.1520947,7.5 L24.8855016,7.5 C25.0189983,7.947 25.1794943,8.3805 25.3414903,8.814 C25.3849892,8.9325 25.4254882,9.0525 25.471987,9.1695 C25.6279831,9.567 25.7989789,9.954 25.9789744,10.3395 C26.0599723,10.515 26.1439703,10.6875 26.2294681,10.86 C26.4064637,11.2125 26.5864592,11.5605 26.7829543,11.9025 C26.8984514,12.105 27.0244483,12.3015 27.1474452,12.501 C27.3394404,12.81 27.5269358,13.122 27.7324306,13.4205 C27.7414304,13.434 27.7504302,13.449 27.75943,13.464 C24.470012,13.14 21.8000786,10.683 21.1520947,7.5 Z M31.9428256,13.857 C30.8988517,12.753 30.001874,11.5275 29.2713923,10.2075 C29.2368931,10.146 29.202394,10.086 29.1693948,10.0245 C28.4359131,8.661 27.8734271,7.2045 27.5119361,5.688 C27.3019414,4.812 27.1384455,3.9195 27.0619474,3 L62.9380526,3 C62.8615545,3.9195 62.6980586,4.8135 62.4880639,5.688 C62.1250729,7.2045 61.5640869,8.661 60.8306052,10.0245 C60.797606,10.086 60.7631069,10.1475 60.7286077,10.2075 C59.998126,11.526 59.1011483,12.753 58.0571744,13.857 C54.7737563,17.3235 50.1403718,19.5 45,19.5 C39.8596282,19.5 35.2262437,17.3235 31.9428256,13.857 Z M37.500187,33 L52.499813,33 C54.4557642,33 56.1237226,34.254 56.7432071,36 L33.2567929,36 C33.8762774,34.254 35.5442358,33 37.500187,33 Z M50.9998504,45 C50.9998504,48.309 48.3089175,51 45,51 C41.6910825,51 39.0001496,48.309 39.0001496,45 C39.0001496,41.691 41.6910825,39 45,39 C48.3089175,39 50.9998504,41.691 50.9998504,45 Z M33.0002993,39 L38.3101668,39 C36.8792025,40.5945 36.0002244,42.693 36.0002244,45 C36.0002244,47.307 36.8792025,49.4055 38.3101668,51 L34.5002619,51 C33.6722825,51 33.0002993,50.3265 33.0002993,49.5 L33.0002993,39 Z M9.00089778,51 C9.00089778,48.519 11.0198474,46.5 13.5007856,46.5 C15.9817237,46.5 18.0006733,48.519 18.0006733,51 C18.0006733,53.481 15.9817237,55.5 13.5007856,55.5 C11.0198474,55.5 9.00089778,53.481 9.00089778,51 Z M6.57395831,87 L3.9280243,87 L9.76137882,75.336 L11.4338371,75.894 L12.0293223,76.092 L6.57395831,87 Z M22.5005611,61.5 L19.5006359,61.5 C18.6711566,61.5 18.0006733,62.172 18.0006733,63 L18.0006733,73.5 C18.0006733,73.599 18.0111731,73.6965 18.0306726,73.794 L20.6706068,87 L17.7021808,87 L14.9647491,74.676 C14.8507519,74.1615 14.4742613,73.7445 13.9747737,73.578 L10.5008604,72.4185 L10.5008604,63 C10.5008604,60.519 12.51981,58.5 15.0007482,58.5 L22.5005611,58.5 C24.1835191,58.5 25.6519825,57.5715 26.4244633,56.2005 C26.7289557,56.5665 27.0634473,56.904 27.4144386,57.225 C27.4579375,57.2655 27.4999364,57.3045 27.5449353,57.3435 C27.9064263,57.6645 28.2829169,57.966 28.6849069,58.2345 C27.3019414,60.2535 24.9964989,61.5 22.5005611,61.5 Z M60.6131106,54.954 C60.4031159,55.1505 60.1781215,55.332 59.9471272,55.5045 C59.83613,55.587 59.7326326,55.68 59.6156355,55.7565 C58.432165,56.5395 57.0207002,57 55.4997381,57 L52.499813,57 C51.6703336,57 50.9998504,57.672 50.9998504,58.5 L50.9998504,69 C50.9998504,69.114 51.01335,69.2265 51.0373494,69.3375 L55.1142478,87 L50.6713586,87 L46.4549637,70.1355 C46.2869679,69.468 45.6884828,69 45,69 C44.3115172,69 43.7130321,69.468 43.5450363,70.1355 L39.3286414,87 L34.8857522,87 L38.9626506,69.3375 C38.98665,69.2265 39.0001496,69.114 39.0001496,69 L39.0001496,58.5 C39.0001496,57.672 38.3296664,57 37.500187,57 L34.5002619,57 C32.9792998,57 31.567835,56.5395 30.3843645,55.758 C30.2673674,55.6815 30.16537,55.5885 30.0528728,55.506 C29.8218785,55.3335 29.5968841,55.1535 29.3868894,54.9555 C29.2593926,54.8355 29.1378956,54.711 29.0193985,54.5835 C28.8379031,54.387 28.6684073,54.18 28.5079113,53.9655 C28.4119137,53.8365 28.3069163,53.712 28.2199185,53.577 C28.0039239,53.2455 27.8149286,52.8975 27.6529326,52.533 C27.5929341,52.398 27.5494352,52.2555 27.4969365,52.1175 C27.3919391,51.837 27.3004414,51.5505 27.2284432,51.255 C27.1939441,51.114 27.1609449,50.9715 27.1339456,50.8275 C27.0574475,50.394 27.0004489,49.9545 27.0004489,49.5 L27.0004489,39 L30.0003741,39 L30.0003741,49.5 C30.0003741,51.981 32.0193237,54 34.5002619,54 L55.4997381,54 C57.9806763,54 59.9996259,51.981 59.9996259,49.5 L59.9996259,39 L62.9995511,39 L62.9995511,49.5 C62.9995511,49.9545 62.9425525,50.394 62.8660544,50.826 C62.8390551,50.97 62.8060559,51.111 62.7715568,51.2535 C62.6995586,51.549 62.6080609,51.8355 62.5030635,52.116 C62.4505648,52.254 62.4070659,52.3965 62.3470674,52.5315 C62.1850714,52.896 61.9945762,53.244 61.7800815,53.5755 C61.6915837,53.7105 61.5880863,53.835 61.4920887,53.964 C61.3315927,54.1785 61.1635969,54.387 60.9806015,54.582 C60.8621044,54.7095 60.7406074,54.8355 60.6131106,54.954 Z M76.0252263,73.578 C75.8497306,73.6365 75.6967345,73.7355 75.5572379,73.8495 C75.3007443,74.0595 75.1087491,74.343 75.033751,74.676 L72.2963193,87 L69.3293932,87 L71.9708274,73.794 C71.9888269,73.6965 71.9993267,73.599 71.9993267,73.5 L71.9993267,63 C71.9993267,62.172 71.3288434,61.5 70.4993641,61.5 L67.4994389,61.5 C65.0035011,61.5 62.6980586,60.2535 61.3150931,58.2345 C61.7170831,57.966 62.0950737,57.663 62.4550647,57.3435 C62.4985636,57.3045 62.5420625,57.2655 62.5855614,57.225 C62.9350527,56.904 63.2710443,56.5665 63.5755367,56.2005 C64.3480175,57.5715 65.8164809,58.5 67.4994389,58.5 L74.9992518,58.5 C77.48019,58.5 79.4991396,60.519 79.4991396,63 L79.4991396,72.42 L76.0252263,73.578 Z M83.4260417,87 L77.9706777,76.092 L78.5661629,75.894 L80.2386212,75.336 L86.0719757,87 L83.4260417,87 Z" id="Shape"></path>
                <path d="M51.397197,11 C49.591814,12.8204925 47.3201147,13.8228753 45,13.8228753 L45,17 C47.9010989,17 50.7423157,15.7466243 53,13.4702145 L51.397197,11 Z" id="Shape"></path>
                <path d="M54.6112037,7 C54.1857286,7.82492772 53.642881,8.59331834 53,9.28332798 L54.9846616,11 C55.7889296,10.1390941 56.4664888,9.17796338 57,8.14487633 L54.6112037,7 Z" id="Shape"></path>
            </g>
        </g>
    </g>
</svg>