<?xml version="1.0" encoding="UTF-8"?>
<svg width="664px" height="775px" viewBox="0 0 664 775" version="1.1" xmlns="http://www.w3.org/2000/svg" xmlns:xlink="http://www.w3.org/1999/xlink">
    <!-- Generator: Sketch 49.3 (51167) - http://www.bohemiancoding.com/sketch -->
    <title>Slice</title>
    <desc>Created with Sketch.</desc>
    <defs>
        <rect id="path-1" x="0" y="0" width="309.25" height="637" rx="40"></rect>
        <filter x="-48.8%" y="-21.5%" width="197.7%" height="147.4%" filterUnits="objectBoundingBox" id="filter-2">
            <feOffset dx="0" dy="12" in="SourceAlpha" result="shadowOffsetOuter1"></feOffset>
            <feGaussianBlur stdDeviation="39" in="shadowOffsetOuter1" result="shadowBlurOuter1"></feGaussianBlur>
            <feColorMatrix values="0 0 0 0 0   0 0 0 0 0   0 0 0 0 0  0 0 0 0.18 0" type="matrix" in="shadowBlurOuter1" result="shadowMatrixOuter1"></feColorMatrix>
            <feOffset dx="0" dy="2" in="SourceAlpha" result="shadowOffsetOuter2"></feOffset>
            <feGaussianBlur stdDeviation="14" in="shadowOffsetOuter2" result="shadowBlurOuter2"></feGaussianBlur>
            <feColorMatrix values="0 0 0 0 0   0 0 0 0 0   0 0 0 0 0  0 0 0 0.16 0" type="matrix" in="shadowBlurOuter2" result="shadowMatrixOuter2"></feColorMatrix>
            <feMerge>
                <feMergeNode in="shadowMatrixOuter1"></feMergeNode>
                <feMergeNode in="shadowMatrixOuter2"></feMergeNode>
            </feMerge>
        </filter>
        <filter x="-39.8%" y="-17.1%" width="179.7%" height="138.7%" filterUnits="objectBoundingBox" id="filter-3">
            <feGaussianBlur stdDeviation="15" in="SourceAlpha" result="shadowBlurInner1"></feGaussianBlur>
            <feOffset dx="0" dy="-4.4" in="shadowBlurInner1" result="shadowOffsetInner1"></feOffset>
            <feComposite in="shadowOffsetInner1" in2="SourceAlpha" operator="arithmetic" k2="-1" k3="1" result="shadowInnerInner1"></feComposite>
            <feColorMatrix values="0 0 0 0 0   0 0 0 0 0   0 0 0 0 0  0 0 0 0.08 0" type="matrix" in="shadowInnerInner1"></feColorMatrix>
        </filter>
        <rect id="path-4" x="14" y="14" width="281.25" height="609" rx="30"></rect>
        <filter x="-1.3%" y="-8.2%" width="103.6%" height="112.7%" filterUnits="objectBoundingBox" id="filter-6">
            <feOffset dx="2" dy="-2" in="SourceAlpha" result="shadowOffsetOuter1"></feOffset>
            <feGaussianBlur stdDeviation="2" in="shadowOffsetOuter1" result="shadowBlurOuter1"></feGaussianBlur>
            <feColorMatrix values="0 0 0 0 0   0 0 0 0 0   0 0 0 0 0  0 0 0 0.251019022 0" type="matrix" in="shadowBlurOuter1" result="shadowMatrixOuter1"></feColorMatrix>
            <feMerge>
                <feMergeNode in="shadowMatrixOuter1"></feMergeNode>
                <feMergeNode in="SourceGraphic"></feMergeNode>
            </feMerge>
        </filter>
        <filter x="-1.3%" y="-6.7%" width="103.6%" height="110.4%" filterUnits="objectBoundingBox" id="filter-7">
            <feOffset dx="2" dy="-2" in="SourceAlpha" result="shadowOffsetOuter1"></feOffset>
            <feGaussianBlur stdDeviation="2" in="shadowOffsetOuter1" result="shadowBlurOuter1"></feGaussianBlur>
            <feColorMatrix values="0 0 0 0 0   0 0 0 0 0   0 0 0 0 0  0 0 0 0.183508832 0" type="matrix" in="shadowBlurOuter1" result="shadowMatrixOuter1"></feColorMatrix>
            <feMerge>
                <feMergeNode in="shadowMatrixOuter1"></feMergeNode>
                <feMergeNode in="SourceGraphic"></feMergeNode>
            </feMerge>
        </filter>
        <filter x="-1.3%" y="-8.2%" width="103.6%" height="112.7%" filterUnits="objectBoundingBox" id="filter-8">
            <feOffset dx="2" dy="-2" in="SourceAlpha" result="shadowOffsetOuter1"></feOffset>
            <feGaussianBlur stdDeviation="2" in="shadowOffsetOuter1" result="shadowBlurOuter1"></feGaussianBlur>
            <feColorMatrix values="0 0 0 0 0   0 0 0 0 0   0 0 0 0 0  0 0 0 0.239300272 0" type="matrix" in="shadowBlurOuter1" result="shadowMatrixOuter1"></feColorMatrix>
            <feMerge>
                <feMergeNode in="shadowMatrixOuter1"></feMergeNode>
                <feMergeNode in="SourceGraphic"></feMergeNode>
            </feMerge>
        </filter>
    </defs>
    <g id="Relances" stroke="none" stroke-width="1" fill="none" fill-rule="evenodd">
        <g id="iphone" transform="translate(96.000000, 64.000000)">
            <g id="base">
                <use fill="black" fill-opacity="1" filter="url(#filter-2)" xlink:href="#path-1"></use>
                <use fill="#FFFFFF" fill-rule="evenodd" xlink:href="#path-1"></use>
                <use fill="black" fill-opacity="1" filter="url(#filter-3)" xlink:href="#path-1"></use>
            </g>
            <mask id="mask-5" fill="white">
                <use xlink:href="#path-4"></use>
            </mask>
            <use id="mask" stroke="#979797" fill="#EBEBEB" xlink:href="#path-4"></use>
            <path d="M79,13.5 L230.5,13.5 L230.5,18.5 C230.5,27.8888407 222.888841,35.5 213.5,35.5 L96,35.5 C86.6111593,35.5 79,27.8888407 79,18.5 L79,13.5 Z" id="bar" stroke="#979797" fill="#FFFFFF"></path>
            <rect id="Rectangle-3" fill="#FFFFFF" x="88.75" y="597.75" width="131.75" height="4.25" rx="2.125"></rect>
        </g>
        <g id="Notif-1" filter="url(#filter-6)" transform="translate(261.000000, 186.000000)">
            <rect id="Rectangle" fill="#D8D8D8" x="0" y="0" width="387" height="109.5" rx="15.25"></rect>
            <text id="il-y-a-2-semaines" font-family="AvenirNext-Regular, Avenir Next" font-size="16" font-weight="normal" fill="#808080">
                <tspan x="256.428" y="30">il y a 2 semaines</tspan>
            </text>
            <text id="MESSENGER" font-family="AvenirNext-Regular, Avenir Next" font-size="16" font-weight="normal" fill="#808080">
                <tspan x="53.044" y="30">MESSENGER</tspan>
            </text>
            <text id="Hello-Julie,-ton-can" font-family="AvenirNext-Regular, Avenir Next" font-size="16" font-weight="normal" line-spacing="18.25" fill="#000000">
                <tspan x="18" y="76">Hello Julie, ton candidat Clara Hemi vient de </tspan>
                <tspan x="18" y="94.25">passer de « OK pour call » à « En entretien »</tspan>
            </text>
            <text id="Trusty" font-family="AvenirNext-Bold, Avenir Next" font-size="16" font-weight="bold" fill="#000000">
                <tspan x="18.204" y="53">Trusty</tspan>
            </text>
            <rect id="Rectangle-2" fill="#FFFFFF" x="16" y="11" width="27" height="24.5" rx="3.5"></rect>
            <path d="M29.625,15 C24.8615357,15 21,18.5754884 21,22.9861111 C21,25.4993403 22.2542143,27.7410949 24.2142857,29.2050023 L24.2142857,32.25 L27.1510179,30.6382431 C27.9347679,30.8551458 28.7650714,30.9722222 29.625,30.9722222 C34.3884643,30.9722222 38.25,27.3967338 38.25,22.9861111 C38.25,18.5754884 34.3884643,15 29.625,15 Z M30.4821429,25.7546296 L28.2857143,23.412037 L24,25.7546296 L28.7142857,20.75 L30.9642857,23.0925926 L35.1964286,20.75 L30.4821429,25.7546296 Z" id="Shape" fill="#0084FF" fill-rule="nonzero"></path>
        </g>
        <g id="Notif-2" filter="url(#filter-7)" transform="translate(216.000000, 276.000000)">
            <rect id="Rectangle" fill="#D8D8D8" x="0" y="0" width="387" height="133" rx="15.25"></rect>
            <text id="il-y-a-1-semaines" font-family="AvenirNext-Regular, Avenir Next" font-size="16" font-weight="normal" fill="#808080">
                <tspan x="256.428" y="30">il y a 1 semaines</tspan>
            </text>
            <text id="MESSENGER" font-family="AvenirNext-Regular, Avenir Next" font-size="16" font-weight="normal" fill="#808080">
                <tspan x="53.044" y="30">MESSENGER</tspan>
            </text>
            <text id="Hello-Julie,-j’ai-id" font-family="AvenirNext-Regular, Avenir Next" font-size="16" font-weight="normal" line-spacing="18.25" fill="#000000">
                <tspan x="18" y="78">Hello Julie, j’ai identifié Jean Léro dans tes </tspan>
                <tspan x="18" y="96.25">relations pour le poste de Data Analyst. Qu’en </tspan>
                <tspan x="18" y="114.5">penses-tu ?</tspan>
            </text>
            <text id="Trusty" font-family="AvenirNext-Bold, Avenir Next" font-size="16" font-weight="bold" fill="#000000">
                <tspan x="18.204" y="54">Trusty</tspan>
            </text>
            <rect id="Rectangle-2" fill="#FFFFFF" x="16" y="11" width="27" height="24.5" rx="3.5"></rect>
            <path d="M29.625,15 C24.8615357,15 21,18.5754884 21,22.9861111 C21,25.4993403 22.2542143,27.7410949 24.2142857,29.2050023 L24.2142857,32.25 L27.1510179,30.6382431 C27.9347679,30.8551458 28.7650714,30.9722222 29.625,30.9722222 C34.3884643,30.9722222 38.25,27.3967338 38.25,22.9861111 C38.25,18.5754884 34.3884643,15 29.625,15 Z M30.4821429,25.7546296 L28.2857143,23.412037 L24,25.7546296 L28.7142857,20.75 L30.9642857,23.0925926 L35.1964286,20.75 L30.4821429,25.7546296 Z" id="Shape" fill="#0084FF" fill-rule="nonzero"></path>
        </g>
        <g id="Notif-3" filter="url(#filter-8)" transform="translate(165.000000, 369.000000)">
            <rect id="Rectangle" fill="#D8D8D8" x="0" y="0" width="387" height="109.5" rx="15.25"></rect>
            <text id="il-y-a-2-semaines" font-family="AvenirNext-Regular, Avenir Next" font-size="16" font-weight="normal" fill="#808080">
                <tspan x="256.428" y="30">il y a 2 semaines</tspan>
            </text>
            <text id="MESSENGER" font-family="AvenirNext-Regular, Avenir Next" font-size="16" font-weight="normal" fill="#808080">
                <tspan x="53.044" y="30">MESSENGER</tspan>
            </text>
            <text id="Hello-Julie,-as-tu-d" font-family="AvenirNext-Regular, Avenir Next" font-size="16" font-weight="normal" line-spacing="18.25" fill="#000000">
                <tspan x="18" y="76">Hello Julie, as-tu des nouvelles de Pauline </tspan>
                <tspan x="18" y="94.25">Lami que tu as contacté la semaine dernière ?</tspan>
            </text>
            <text id="Trusty" font-family="AvenirNext-Bold, Avenir Next" font-size="16" font-weight="bold" fill="#000000">
                <tspan x="18.204" y="53">Trusty</tspan>
            </text>
            <rect id="Rectangle-2" fill="#FFFFFF" x="16" y="11" width="27" height="24.5" rx="3.5"></rect>
            <path d="M29.625,15 C24.8615357,15 21,18.5754884 21,22.9861111 C21,25.4993403 22.2542143,27.7410949 24.2142857,29.2050023 L24.2142857,32.25 L27.1510179,30.6382431 C27.9347679,30.8551458 28.7650714,30.9722222 29.625,30.9722222 C34.3884643,30.9722222 38.25,27.3967338 38.25,22.9861111 C38.25,18.5754884 34.3884643,15 29.625,15 Z M30.4821429,25.7546296 L28.2857143,23.412037 L24,25.7546296 L28.7142857,20.75 L30.9642857,23.0925926 L35.1964286,20.75 L30.4821429,25.7546296 Z" id="Shape" fill="#0084FF" fill-rule="nonzero"></path>
        </g>
    </g>
</svg>