<?xml version="1.0" encoding="UTF-8"?>
<svg width="100%" height="100%" viewBox="0 0 2618 2836" version="1.1" xmlns="http://www.w3.org/2000/svg" xmlns:xlink="http://www.w3.org/1999/xlink">
    <!-- Generator: Sketch 49.3 (51167) - http://www.bohemiancoding.com/sketch -->
    <title>Slice</title>
    <desc>Created with Sketch.</desc>
    <defs>
        <rect id="path-1" x="0" y="0" width="1237" height="2548" rx="180"></rect>
        <filter x="-13.7%" y="-4.4%" width="127.5%" height="113.3%" filterUnits="objectBoundingBox" id="filter-2">
            <feOffset dx="0" dy="50" in="SourceAlpha" result="shadowOffsetOuter1"></feOffset>
            <feGaussianBlur stdDeviation="39" in="shadowOffsetOuter1" result="shadowBlurOuter1"></feGaussianBlur>
            <feColorMatrix values="0 0 0 0 0   0 0 0 0 0   0 0 0 0 0  0 0 0 0.18 0" type="matrix" in="shadowBlurOuter1" result="shadowMatrixOuter1"></feColorMatrix>
            <feOffset dx="0" dy="8" in="SourceAlpha" result="shadowOffsetOuter2"></feOffset>
            <feGaussianBlur stdDeviation="14" in="shadowOffsetOuter2" result="shadowBlurOuter2"></feGaussianBlur>
            <feColorMatrix values="0 0 0 0 0   0 0 0 0 0   0 0 0 0 0  0 0 0 0.16 0" type="matrix" in="shadowBlurOuter2" result="shadowMatrixOuter2"></feColorMatrix>
            <feMerge>
                <feMergeNode in="shadowMatrixOuter1"></feMergeNode>
                <feMergeNode in="shadowMatrixOuter2"></feMergeNode>
            </feMerge>
        </filter>
        <filter x="-10.5%" y="-2.8%" width="121.0%" height="110.2%" filterUnits="objectBoundingBox" id="filter-3">
            <feGaussianBlur stdDeviation="15" in="SourceAlpha" result="shadowBlurInner1"></feGaussianBlur>
            <feOffset dx="0" dy="-18" in="shadowBlurInner1" result="shadowOffsetInner1"></feOffset>
            <feComposite in="shadowOffsetInner1" in2="SourceAlpha" operator="arithmetic" k2="-1" k3="1" result="shadowInnerInner1"></feComposite>
            <feColorMatrix values="0 0 0 0 0   0 0 0 0 0   0 0 0 0 0  0 0 0 0.08 0" type="matrix" in="shadowInnerInner1"></feColorMatrix>
        </filter>
        <rect id="path-4" x="56" y="56" width="1125" height="2436" rx="120"></rect>
        <filter x="-3.0%" y="-10.0%" width="105.9%" height="121.0%" filterUnits="objectBoundingBox" id="filter-6">
            <feOffset dx="0" dy="2" in="SourceAlpha" result="shadowOffsetOuter1"></feOffset>
            <feGaussianBlur stdDeviation="15" in="shadowOffsetOuter1" result="shadowBlurOuter1"></feGaussianBlur>
            <feColorMatrix values="0 0 0 0 0   0 0 0 0 0   0 0 0 0 0  0 0 0 0.5 0" type="matrix" in="shadowBlurOuter1" result="shadowMatrixOuter1"></feColorMatrix>
            <feMerge>
                <feMergeNode in="shadowMatrixOuter1"></feMergeNode>
                <feMergeNode in="SourceGraphic"></feMergeNode>
            </feMerge>
        </filter>
        <filter x="-3.0%" y="-9.0%" width="105.9%" height="118.9%" filterUnits="objectBoundingBox" id="filter-7">
            <feOffset dx="0" dy="2" in="SourceAlpha" result="shadowOffsetOuter1"></feOffset>
            <feGaussianBlur stdDeviation="15" in="shadowOffsetOuter1" result="shadowBlurOuter1"></feGaussianBlur>
            <feColorMatrix values="0 0 0 0 0   0 0 0 0 0   0 0 0 0 0  0 0 0 0.5 0" type="matrix" in="shadowBlurOuter1" result="shadowMatrixOuter1"></feColorMatrix>
            <feMerge>
                <feMergeNode in="shadowMatrixOuter1"></feMergeNode>
                <feMergeNode in="SourceGraphic"></feMergeNode>
            </feMerge>
        </filter>
        <filter x="-3.0%" y="-10.0%" width="105.9%" height="121.0%" filterUnits="objectBoundingBox" id="filter-8">
            <feOffset dx="0" dy="2" in="SourceAlpha" result="shadowOffsetOuter1"></feOffset>
            <feGaussianBlur stdDeviation="15" in="shadowOffsetOuter1" result="shadowBlurOuter1"></feGaussianBlur>
            <feColorMatrix values="0 0 0 0 0   0 0 0 0 0   0 0 0 0 0  0 0 0 0.5 0" type="matrix" in="shadowBlurOuter1" result="shadowMatrixOuter1"></feColorMatrix>
            <feMerge>
                <feMergeNode in="shadowMatrixOuter1"></feMergeNode>
                <feMergeNode in="SourceGraphic"></feMergeNode>
            </feMerge>
        </filter>
    </defs>
    <g id="Relances" stroke="none" stroke-width="1" fill="none" fill-rule="evenodd">
        <g id="white" transform="translate(73.000000, 160.000000)">
            <g id="base">
                <use fill="black" fill-opacity="1" filter="url(#filter-2)" xlink:href="#path-1"></use>
                <use fill="#FFFFFF" fill-rule="evenodd" xlink:href="#path-1"></use>
                <use fill="black" fill-opacity="1" filter="url(#filter-3)" xlink:href="#path-1"></use>
            </g>
            <mask id="mask-5" fill="white">
                <use xlink:href="#path-4"></use>
            </mask>
            <use id="mask" stroke="#979797" fill="#EBEBEB" xlink:href="#path-4"></use>
            <path d="M316,54 L922,54 L922,74 C922,111.555363 891.555363,142 854,142 L384,142 C346.444637,142 316,111.555363 316,74 L316,54 Z" id="bar" stroke="#979797" fill="#FFFFFF"></path>
        </g>
        <g id="Notification-proposition" filter="url(#filter-6)" transform="translate(737.000000, 646.000000)">
            <rect id="Rectangle" fill="#D8D8D8" x="0" y="0" width="1548" height="438" rx="61"></rect>
            <text id="il-y-a-2-semaines" font-family="AvenirNext-Regular, Avenir Next" font-size="64" font-weight="normal" fill="#808080">
                <tspan x="1057.712" y="114">il y a 2 semaines</tspan>
            </text>
            <text id="MESSENGER" font-family="AvenirNext-Regular, Avenir Next" font-size="64" font-weight="normal" fill="#808080">
                <tspan x="185.176" y="118">MESSENGER</tspan>
            </text>
            <text id="Hello-Julie,-ton-can" font-family="AvenirNext-Regular, Avenir Next" font-size="64" font-weight="normal" line-spacing="73" fill="#000000">
                <tspan x="60" y="308.5">Hello Julie, ton candidat Clara Hemi vient de </tspan>
                <tspan x="60" y="381.5">passer de « OK pour call » à « En entretien »</tspan>
            </text>
            <text id="Trusty" font-family="AvenirNext-Bold, Avenir Next" font-size="64" font-weight="bold" fill="#000000">
                <tspan x="60.316" y="223">Trusty</tspan>
            </text>
            <g id="Logo-Messenger" transform="translate(60.000000, 47.000000)">
                <g id="facebook-messenger">
                    <rect id="Rectangle-2" fill="#FFFFFF" x="0" y="0" width="108" height="98" rx="14"></rect>
                    <path d="M54.5,15 C35.4461429,15 20,29.3019537 20,46.9444444 C20,56.9973611 25.0168571,65.9643796 32.8571429,71.8200093 L32.8571429,84 L44.6040714,77.5529722 C47.7390714,78.4205833 51.0602857,78.8888889 54.5,78.8888889 C73.5538571,78.8888889 89,64.5869352 89,46.9444444 C89,29.3019537 73.5538571,15 54.5,15 Z M57.9285714,58.0185185 L49.1428571,48.6481481 L32,58.0185185 L50.8571429,38 L59.8571429,47.3703704 L76.7857143,38 L57.9285714,58.0185185 Z" id="Shape" fill="#0084FF" fill-rule="nonzero"></path>
                </g>
            </g>
        </g>
        <g id="Notification-valide" filter="url(#filter-7)" transform="translate(440.000000, 1014.000000)">
            <rect id="Rectangle" fill="#D8D8D8" x="0" y="0" width="1548" height="488" rx="61"></rect>
            <text id="il-y-a-1-semaine" font-family="AvenirNext-Regular, Avenir Next" font-size="64" font-weight="normal" fill="#808080">
                <tspan x="1071.92" y="114">il y a 1 semaine</tspan>
            </text>
            <text id="MESSENGER" font-family="AvenirNext-Regular, Avenir Next" font-size="64" font-weight="normal" fill="#808080">
                <tspan x="185.176" y="118">MESSENGER</tspan>
            </text>
            <text id="Hello-Julie,-j’ai-id" font-family="AvenirNext-Regular, Avenir Next" font-size="64" font-weight="normal" line-spacing="73" fill="#000000">
                <tspan x="60" y="308.5">Hello Julie, j’ai identifié Jean Léro dans tes </tspan>
                <tspan x="60" y="381.5">relations pour le poste de Data Analyst. Qu’en </tspan>
                <tspan x="60" y="454.5">penses-tu ?</tspan>
            </text>
            <text id="Trusty" font-family="AvenirNext-Bold, Avenir Next" font-size="64" font-weight="bold" fill="#000000">
                <tspan x="60.316" y="223">Trusty</tspan>
            </text>
            <g id="Logo-Messenger" transform="translate(60.000000, 47.000000)">
                <g id="facebook-messenger">
                    <rect id="Rectangle-2" fill="#FFFFFF" x="0" y="0" width="108" height="98" rx="14"></rect>
                    <path d="M54.5,15 C35.4461429,15 20,29.3019537 20,46.9444444 C20,56.9973611 25.0168571,65.9643796 32.8571429,71.8200093 L32.8571429,84 L44.6040714,77.5529722 C47.7390714,78.4205833 51.0602857,78.8888889 54.5,78.8888889 C73.5538571,78.8888889 89,64.5869352 89,46.9444444 C89,29.3019537 73.5538571,15 54.5,15 Z M57.9285714,58.0185185 L49.1428571,48.6481481 L32,58.0185185 L50.8571429,38 L59.8571429,47.3703704 L76.7857143,38 L57.9285714,58.0185185 Z" id="Shape" fill="#0084FF" fill-rule="nonzero"></path>
                </g>
            </g>
        </g>
        <g id="Notification" filter="url(#filter-8)" transform="translate(246.000000, 1392.000000)">
            <rect id="Rectangle" fill="#D8D8D8" x="0" y="0" width="1548" height="438" rx="61"></rect>
            <text id="il-y-a-2-mn" font-family="AvenirNext-Regular, Avenir Next" font-size="64" font-weight="normal" fill="#808080">
                <tspan x="1147.824" y="114">il y a 2 mn</tspan>
            </text>
            <text id="MESSENGER" font-family="AvenirNext-Regular, Avenir Next" font-size="64" font-weight="normal" fill="#808080">
                <tspan x="185.176" y="118">MESSENGER</tspan>
            </text>
            <text id="Hello-Julie,-as-tu-d" font-family="AvenirNext-Regular, Avenir Next" font-size="64" font-weight="normal" line-spacing="73" fill="#000000">
                <tspan x="60" y="308.5">Hello Julie, as-tu des nouvelles de Pauline Lami </tspan>
                <tspan x="60" y="381.5">que tu as contacté la semaine dernière ?</tspan>
            </text>
            <text id="Trusty" font-family="AvenirNext-Bold, Avenir Next" font-size="64" font-weight="bold" fill="#000000">
                <tspan x="60.316" y="223">Trusty</tspan>
            </text>
            <g id="Logo-Messenger" transform="translate(60.000000, 47.000000)">
                <g id="facebook-messenger">
                    <rect id="Rectangle-2" fill="#FFFFFF" x="0" y="0" width="108" height="98" rx="14"></rect>
                    <path d="M54.5,15 C35.4461429,15 20,29.3019537 20,46.9444444 C20,56.9973611 25.0168571,65.9643796 32.8571429,71.8200093 L32.8571429,84 L44.6040714,77.5529722 C47.7390714,78.4205833 51.0602857,78.8888889 54.5,78.8888889 C73.5538571,78.8888889 89,64.5869352 89,46.9444444 C89,29.3019537 73.5538571,15 54.5,15 Z M57.9285714,58.0185185 L49.1428571,48.6481481 L32,58.0185185 L50.8571429,38 L59.8571429,47.3703704 L76.7857143,38 L57.9285714,58.0185185 Z" id="Shape" fill="#0084FF" fill-rule="nonzero"></path>
                </g>
            </g>
        </g>
        <rect id="Rectangle-3" fill="#FFFFFF" x="428" y="2551" width="527" height="17" rx="8.5"></rect>
    </g>
</svg>