<?xml version="1.0" encoding="UTF-8"?>
<svg width="664px" height="775px" viewBox="0 0 664 775" version="1.1" xmlns="http://www.w3.org/2000/svg" xmlns:xlink="http://www.w3.org/1999/xlink">
    <!-- Generator: Sketch 49.3 (51167) - http://www.bohemiancoding.com/sketch -->
    <title>Slice</title>
    <desc>Created with Sketch.</desc>
    <defs>
        <rect id="path-1" x="96" y="64" width="309.25" height="637" rx="40"></rect>
        <filter x="-48.8%" y="-21.5%" width="197.7%" height="147.4%" filterUnits="objectBoundingBox" id="filter-2">
            <feOffset dx="0" dy="12" in="SourceAlpha" result="shadowOffsetOuter1"></feOffset>
            <feGaussianBlur stdDeviation="39" in="shadowOffsetOuter1" result="shadowBlurOuter1"></feGaussianBlur>
            <feColorMatrix values="0 0 0 0 0   0 0 0 0 0   0 0 0 0 0  0 0 0 0.18 0" type="matrix" in="shadowBlurOuter1" result="shadowMatrixOuter1"></feColorMatrix>
            <feOffset dx="0" dy="2" in="SourceAlpha" result="shadowOffsetOuter2"></feOffset>
            <feGaussianBlur stdDeviation="14" in="shadowOffsetOuter2" result="shadowBlurOuter2"></feGaussianBlur>
            <feColorMatrix values="0 0 0 0 0   0 0 0 0 0   0 0 0 0 0  0 0 0 0.16 0" type="matrix" in="shadowBlurOuter2" result="shadowMatrixOuter2"></feColorMatrix>
            <feMerge>
                <feMergeNode in="shadowMatrixOuter1"></feMergeNode>
                <feMergeNode in="shadowMatrixOuter2"></feMergeNode>
            </feMerge>
        </filter>
        <filter x="-39.8%" y="-17.1%" width="179.7%" height="138.7%" filterUnits="objectBoundingBox" id="filter-3">
            <feGaussianBlur stdDeviation="15" in="SourceAlpha" result="shadowBlurInner1"></feGaussianBlur>
            <feOffset dx="0" dy="-4.4" in="shadowBlurInner1" result="shadowOffsetInner1"></feOffset>
            <feComposite in="shadowOffsetInner1" in2="SourceAlpha" operator="arithmetic" k2="-1" k3="1" result="shadowInnerInner1"></feComposite>
            <feColorMatrix values="0 0 0 0 0   0 0 0 0 0   0 0 0 0 0  0 0 0 0.08 0" type="matrix" in="shadowInnerInner1"></feColorMatrix>
        </filter>
        <rect id="path-4" x="110" y="78" width="281.25" height="609" rx="30"></rect>
    </defs>
    <g id="relance" stroke="none" stroke-width="1" fill="none" fill-rule="evenodd">
        <g id="base">
            <use fill="black" fill-opacity="1" filter="url(#filter-2)" xlink:href="#path-1"></use>
            <use fill="#FFFFFF" fill-rule="evenodd" xlink:href="#path-1"></use>
            <use fill="black" fill-opacity="1" filter="url(#filter-3)" xlink:href="#path-1"></use>
        </g>
        <mask id="mask-5" fill="white">
            <use xlink:href="#path-4"></use>
        </mask>
        <use id="mask" stroke="#979797" fill="#EBEBEB" xlink:href="#path-4"></use>
        <path d="M175,77.5 L326.5,77.5 L326.5,82.5 C326.5,91.8888407 318.888841,99.5 309.5,99.5 L192,99.5 C182.611159,99.5 175,91.8888407 175,82.5 L175,77.5 Z" id="bar" stroke="#979797" fill="#FFFFFF"></path>
        <rect id="Rectangle-3" fill="#FFFFFF" x="184.75" y="661.75" width="131.75" height="4.25" rx="2.125"></rect>
        <rect id="Rectangle" fill="#D8D8D8" x="261" y="186" width="387" height="109.5" rx="15.25"></rect>
        <text id="il-y-a-2-semaines" font-family="AvenirNext-Regular, Avenir Next" font-size="16" font-weight="normal" fill="#808080">
            <tspan x="517.428" y="216">il y a 2 semaines</tspan>
        </text>
        <text id="MESSENGER" font-family="AvenirNext-Regular, Avenir Next" font-size="16" font-weight="normal" fill="#808080">
            <tspan x="314.044" y="216">MESSENGER</tspan>
        </text>
        <text id="Hello-Julie,-ton-can" font-family="AvenirNext-Regular, Avenir Next" font-size="16" font-weight="normal" line-spacing="18.25" fill="#000000">
            <tspan x="279" y="262">Hello Julie, ton candidat Clara Hemi vient de </tspan>
            <tspan x="279" y="280.25">passer de « OK pour call » à « En entretien »</tspan>
        </text>
        <text id="Trusty" font-family="AvenirNext-Bold, Avenir Next" font-size="16" font-weight="bold" fill="#000000">
            <tspan x="279.204" y="239">Trusty</tspan>
        </text>
        <rect id="Rectangle-2" fill="#FFFFFF" x="277" y="197" width="27" height="24.5" rx="3.5"></rect>
        <path d="M290.625,201 C285.861536,201 282,204.575488 282,208.986111 C282,211.49934 283.254214,213.741095 285.214286,215.205002 L285.214286,218.25 L288.151018,216.638243 C288.934768,216.855146 289.765071,216.972222 290.625,216.972222 C295.388464,216.972222 299.25,213.396734 299.25,208.986111 C299.25,204.575488 295.388464,201 290.625,201 Z M291.482143,211.75463 L289.285714,209.412037 L285,211.75463 L289.714286,206.75 L291.964286,209.092593 L296.196429,206.75 L291.482143,211.75463 Z" id="Shape" fill="#0084FF" fill-rule="nonzero"></path>
        <rect id="Rectangle" fill="#D8D8D8" x="216" y="276" width="387" height="133" rx="15.25"></rect>
        <text id="il-y-a-1-semaines" font-family="AvenirNext-Regular, Avenir Next" font-size="16" font-weight="normal" fill="#808080">
            <tspan x="472.428" y="306">il y a 1 semaines</tspan>
        </text>
        <text id="MESSENGER" font-family="AvenirNext-Regular, Avenir Next" font-size="16" font-weight="normal" fill="#808080">
            <tspan x="269.044" y="306">MESSENGER</tspan>
        </text>
        <text id="Hello-Julie,-j’ai-id" font-family="AvenirNext-Regular, Avenir Next" font-size="16" font-weight="normal" line-spacing="18.25" fill="#000000">
            <tspan x="234" y="354">Hello Julie, j’ai identifié Jean Léro dans tes </tspan>
            <tspan x="234" y="372.25">relations pour le poste de Data Analyst. Qu’en </tspan>
            <tspan x="234" y="390.5">penses-tu ?</tspan>
        </text>
        <text id="Trusty" font-family="AvenirNext-Bold, Avenir Next" font-size="16" font-weight="bold" fill="#000000">
            <tspan x="234.204" y="330">Trusty</tspan>
        </text>
        <rect id="Rectangle-2" fill="#FFFFFF" x="232" y="287" width="27" height="24.5" rx="3.5"></rect>
        <path d="M245.625,291 C240.861536,291 237,294.575488 237,298.986111 C237,301.49934 238.254214,303.741095 240.214286,305.205002 L240.214286,308.25 L243.151018,306.638243 C243.934768,306.855146 244.765071,306.972222 245.625,306.972222 C250.388464,306.972222 254.25,303.396734 254.25,298.986111 C254.25,294.575488 250.388464,291 245.625,291 Z M246.482143,301.75463 L244.285714,299.412037 L240,301.75463 L244.714286,296.75 L246.964286,299.092593 L251.196429,296.75 L246.482143,301.75463 Z" id="Shape" fill="#0084FF" fill-rule="nonzero"></path>
        <rect id="Rectangle" fill="#D8D8D8" x="165" y="369" width="387" height="109.5" rx="15.25"></rect>
        <text id="il-y-a-2-semaines" font-family="AvenirNext-Regular, Avenir Next" font-size="16" font-weight="normal" fill="#808080">
            <tspan x="421.428" y="399">il y a 2 semaines</tspan>
        </text>
        <text id="MESSENGER" font-family="AvenirNext-Regular, Avenir Next" font-size="16" font-weight="normal" fill="#808080">
            <tspan x="218.044" y="399">MESSENGER</tspan>
        </text>
        <text id="Hello-Julie,-as-tu-d" font-family="AvenirNext-Regular, Avenir Next" font-size="16" font-weight="normal" line-spacing="18.25" fill="#000000">
            <tspan x="183" y="445">Hello Julie, as-tu des nouvelles de Pauline </tspan>
            <tspan x="183" y="463.25">Lami que tu as contacté la semaine dernière ?</tspan>
        </text>
        <text id="Trusty" font-family="AvenirNext-Bold, Avenir Next" font-size="16" font-weight="bold" fill="#000000">
            <tspan x="183.204" y="422">Trusty</tspan>
        </text>
        <rect id="Rectangle-2" fill="#FFFFFF" x="181" y="380" width="27" height="24.5" rx="3.5"></rect>
        <path d="M194.625,384 C189.861536,384 186,387.575488 186,391.986111 C186,394.49934 187.254214,396.741095 189.214286,398.205002 L189.214286,401.25 L192.151018,399.638243 C192.934768,399.855146 193.765071,399.972222 194.625,399.972222 C199.388464,399.972222 203.25,396.396734 203.25,391.986111 C203.25,387.575488 199.388464,384 194.625,384 Z M195.482143,394.75463 L193.285714,392.412037 L189,394.75463 L193.714286,389.75 L195.964286,392.092593 L200.196429,389.75 L195.482143,394.75463 Z" id="Shape" fill="#0084FF" fill-rule="nonzero"></path>
    </g>
</svg>