<?xml version="1.0" encoding="UTF-8"?>
<svg width="994px" height="995px" viewBox="0 0 994 995" version="1.1" xmlns="http://www.w3.org/2000/svg" xmlns:xlink="http://www.w3.org/1999/xlink">
    <!-- Generator: Sketch 49.3 (51167) - http://www.bohemiancoding.com/sketch -->
    <title>messenger_logo_color</title>
    <desc>Created with Sketch.</desc>
    <defs>
        <linearGradient x1="50%" y1="0%" x2="50%" y2="100.001258%" id="linearGradient-1">
            <stop stop-color="#00B2FF" offset="0%"></stop>
            <stop stop-color="#006AFF" offset="100%"></stop>
        </linearGradient>
    </defs>
    <g id="Page-1" stroke="none" stroke-width="1" fill="none" fill-rule="evenodd">
        <g id="messenger_logo_color">
            <path d="M497,0.5 C217,0.5 0,205.6 0,482.6 C0,627.5 59.4,752.7 156.1,839.2 C164.2,846.5 169.1,856.6 169.5,867.5 L172.2,955.9 C173.1,984.1 202.2,1002.4 228,991.1 L326.6,947.6 C335,943.9 344.3,943.2 353.1,945.6 C398.4,958.1 446.7,964.7 497,964.7 C777,964.7 994,759.6 994,482.6 C994,205.6 777,0.5 497,0.5 Z" id="Bubble_Solid_3_" fill="url(#linearGradient-1)"></path>
            <path d="M198.6,623.6 L344.6,392 C367.8,355.2 417.6,346 452.4,372.1 L568.5,459.2 C579.2,467.2 593.8,467.1 604.4,459.1 L761.2,340.1 C782.1,324.2 809.5,349.3 795.4,371.5 L649.5,603 C626.3,639.8 576.5,649 541.7,622.9 L425.6,535.8 C414.9,527.8 400.3,527.9 389.7,535.9 L232.8,655 C211.9,670.9 184.5,645.8 198.6,623.6 Z" id="Bolt_4_" fill="#FFFFFF"></path>
        </g>
    </g>
</svg>